<svg id="svg" version="1.1" xmlns="http://www.w3.org/2000/svg" xmlns:xlink="http://www.w3.org/1999/xlink" width="400" height="227.55555555555554" viewBox="0, 0, 400,227.55555555555554"><g id="svgg"><path id="path0" d="M204.275 6.916 C 203.532 7.442,203.162 7.716,201.154 9.230 C 199.844 10.218,199.730 10.186,198.436 8.468 C 197.565 7.310,197.093 7.186,196.471 7.948 C 196.409 8.025,195.820 8.492,195.162 8.986 C 193.758 10.040,193.723 10.238,194.723 11.473 C 195.838 12.851,195.876 12.957,195.434 13.446 C 195.214 13.689,194.942 13.887,194.829 13.887 C 194.633 13.887,193.246 14.910,192.281 15.766 C 192.034 15.985,191.751 16.164,191.651 16.164 C 191.552 16.164,191.187 16.416,190.841 16.724 C 189.863 17.595,188.066 18.896,187.843 18.896 C 187.503 18.896,184.633 22.109,184.633 22.489 C 184.633 22.686,184.508 23.192,184.356 23.613 C 184.139 24.213,184.139 24.473,184.356 24.821 C 184.508 25.065,184.635 25.496,184.638 25.779 C 184.641 26.063,184.843 26.551,185.088 26.864 C 185.333 27.177,185.536 27.505,185.538 27.594 C 185.545 27.788,186.641 29.424,186.877 29.591 C 186.970 29.656,187.295 30.068,187.601 30.507 C 187.907 30.945,188.440 31.600,188.785 31.963 C 189.131 32.326,189.414 32.717,189.414 32.832 C 189.414 33.189,190.377 32.757,191.108 32.072 C 191.491 31.713,191.932 31.419,192.089 31.418 C 192.245 31.418,192.373 31.337,192.373 31.239 C 192.373 31.140,192.677 30.881,193.048 30.661 C 194.458 29.829,194.493 29.695,193.618 28.478 C 192.283 26.620,192.572 25.338,194.650 23.901 C 195.088 23.598,195.579 23.222,195.740 23.066 C 195.901 22.910,196.336 22.603,196.707 22.383 C 197.078 22.164,197.382 21.905,197.382 21.806 C 197.382 21.708,197.482 21.628,197.605 21.628 C 197.728 21.628,198.368 21.218,199.028 20.718 C 200.524 19.584,200.780 19.584,201.480 20.717 C 201.789 21.218,202.099 21.628,202.167 21.628 C 202.236 21.628,202.474 21.935,202.696 22.311 C 203.160 23.096,203.490 23.160,204.112 22.586 C 204.355 22.362,205.047 21.840,205.650 21.426 C 207.001 20.500,207.120 20.216,206.498 19.414 C 205.157 17.684,204.667 16.998,204.667 16.853 C 204.667 16.671,205.962 15.481,206.161 15.481 C 206.234 15.481,206.427 15.353,206.591 15.196 C 206.755 15.040,207.516 14.462,208.283 13.912 C 209.745 12.861,209.933 12.474,209.277 11.862 C 209.058 11.658,208.776 11.320,208.651 11.112 C 208.189 10.343,205.232 6.390,205.122 6.393 C 205.060 6.395,204.679 6.630,204.275 6.916 M147.410 17.005 C 146.192 17.100,144.813 17.523,144.074 18.028 C 143.742 18.255,143.376 18.441,143.261 18.441 C 142.637 18.441,139.328 22.167,139.328 22.870 C 139.328 22.941,139.138 23.433,138.905 23.964 C 138.086 25.833,137.962 26.208,137.962 26.829 C 137.962 27.174,137.848 27.570,137.709 27.709 C 137.314 28.105,137.687 32.177,138.236 33.466 C 138.784 34.751,138.950 35.039,139.750 36.098 C 141.619 38.571,145.989 40.609,149.345 40.573 C 150.123 40.564,152.223 40.247,152.647 40.074 C 155.953 38.725,158.114 36.677,159.139 33.921 C 159.302 33.483,159.522 33.027,159.627 32.908 C 159.732 32.789,159.818 32.474,159.818 32.206 C 159.818 31.939,159.893 31.645,159.985 31.554 C 160.077 31.462,160.275 30.804,160.426 30.093 C 162.006 22.621,155.770 16.350,147.410 17.005 M148.662 24.751 C 149.226 24.810,149.784 24.952,149.903 25.065 C 150.022 25.178,150.355 25.270,150.643 25.270 C 150.931 25.270,151.167 25.373,151.167 25.498 C 151.167 25.623,151.372 25.726,151.622 25.726 C 151.873 25.726,152.077 25.828,152.077 25.953 C 152.077 26.079,152.216 26.181,152.385 26.181 C 153.396 26.181,155.023 28.831,154.593 29.776 C 154.462 30.064,154.354 30.450,154.354 30.633 C 154.354 31.755,152.107 33.144,150.648 32.924 C 148.307 32.570,147.980 32.494,147.980 32.303 C 147.980 32.191,147.822 32.100,147.629 32.100 C 146.460 32.100,144.366 30.425,143.779 29.019 C 143.183 27.593,144.611 24.815,145.940 24.815 C 146.170 24.815,146.428 24.704,146.512 24.568 C 146.600 24.425,146.872 24.389,147.151 24.481 C 147.419 24.570,148.099 24.691,148.662 24.751 M269.323 26.445 C 268.509 27.064,267.521 27.772,267.128 28.018 C 266.324 28.519,266.194 28.981,265.987 32.043 C 265.835 34.309,265.636 34.379,264.475 32.577 C 264.000 31.840,263.437 31.032,263.223 30.783 C 263.009 30.534,262.271 29.454,261.582 28.384 C 260.120 26.112,260.220 26.149,258.675 27.320 C 258.015 27.821,257.393 28.230,257.292 28.230 C 257.017 28.230,256.118 29.244,256.118 29.554 C 256.118 29.702,256.221 29.824,256.346 29.824 C 256.471 29.824,256.574 29.961,256.574 30.130 C 256.574 30.298,256.779 30.621,257.029 30.848 C 257.279 31.075,257.484 31.389,257.484 31.547 C 257.484 31.705,257.569 31.869,257.672 31.910 C 257.776 31.952,258.416 32.797,259.095 33.787 C 259.774 34.778,260.814 36.263,261.405 37.088 C 261.996 37.913,262.552 38.742,262.640 38.930 C 262.729 39.118,262.868 39.323,262.949 39.385 C 263.030 39.448,263.542 40.165,264.088 40.979 C 264.633 41.793,265.163 42.493,265.266 42.535 C 265.369 42.576,265.453 42.730,265.453 42.876 C 265.453 43.022,265.760 43.500,266.135 43.939 C 266.511 44.377,266.818 44.863,266.818 45.020 C 266.819 45.458,267.089 45.364,267.957 44.622 C 268.395 44.246,268.844 43.939,268.955 43.939 C 269.065 43.939,269.321 43.759,269.524 43.539 C 269.726 43.319,270.174 42.994,270.518 42.817 C 271.279 42.426,271.301 42.119,270.625 41.281 C 268.866 39.098,268.754 38.729,269.444 37.394 C 269.470 37.343,270.306 37.730,273.562 39.302 L 274.727 39.865 275.725 39.172 C 276.273 38.790,277.131 38.172,277.632 37.798 C 278.133 37.424,278.764 37.020,279.033 36.900 C 279.592 36.651,279.944 36.198,279.578 36.198 C 279.346 36.198,277.617 35.483,276.782 35.041 C 276.564 34.926,276.180 34.832,275.928 34.832 C 275.676 34.832,275.470 34.730,275.470 34.604 C 275.470 34.479,275.219 34.377,274.914 34.377 C 274.608 34.377,274.295 34.274,274.217 34.149 C 274.140 34.024,273.878 33.921,273.635 33.921 C 273.392 33.921,273.193 33.819,273.193 33.694 C 273.193 33.569,272.987 33.466,272.735 33.466 C 272.274 33.466,272.064 33.385,270.803 32.719 C 269.812 32.197,269.809 31.994,270.729 27.057 C 271.070 25.228,270.975 25.187,269.323 26.445 M210.700 46.725 C 207.721 47.300,204.802 49.262,203.015 51.889 C 202.625 52.462,202.246 52.982,202.172 53.045 C 201.835 53.331,200.110 57.083,200.112 57.528 C 200.113 57.802,200.011 58.090,199.886 58.167 C 199.761 58.245,199.659 58.769,199.659 59.332 C 199.659 59.895,199.540 60.826,199.396 61.399 C 199.197 62.187,199.197 62.545,199.396 62.863 C 199.540 63.094,199.659 63.740,199.659 64.298 C 199.659 64.855,199.761 65.375,199.886 65.452 C 200.011 65.530,200.114 65.843,200.114 66.149 C 200.114 66.455,200.216 66.705,200.341 66.705 C 200.467 66.705,200.569 66.961,200.569 67.274 C 200.569 67.587,200.647 67.843,200.741 67.843 C 200.836 67.843,201.041 68.131,201.197 68.483 C 201.353 68.835,201.685 69.343,201.935 69.612 C 202.186 69.881,202.390 70.170,202.390 70.254 C 202.390 70.718,206.396 74.217,206.927 74.217 C 207.041 74.217,207.168 74.295,207.209 74.389 C 207.325 74.651,210.567 76.155,211.725 76.484 C 212.288 76.644,213.046 76.865,213.409 76.976 C 216.614 77.952,221.845 76.563,225.043 73.887 C 226.781 72.433,226.978 72.242,226.978 72.014 C 226.979 71.911,227.282 71.472,227.653 71.038 C 228.444 70.113,230.170 66.776,230.167 66.177 C 230.166 65.950,230.276 65.557,230.412 65.303 C 230.749 64.672,230.759 59.239,230.423 58.903 C 230.281 58.761,230.165 58.506,230.165 58.335 C 230.165 57.005,226.749 52.410,225.498 52.056 C 225.110 51.946,224.716 52.473,222.830 55.615 L 220.618 59.302 221.367 60.101 C 223.888 62.790,223.415 66.494,220.336 68.181 C 216.017 70.546,206.944 65.154,206.944 60.223 C 206.944 59.545,207.046 58.928,207.171 58.850 C 207.297 58.773,207.399 58.511,207.399 58.268 C 207.399 58.025,207.501 57.826,207.627 57.826 C 207.752 57.826,207.854 57.687,207.854 57.518 C 207.854 57.002,209.197 55.770,209.917 55.626 C 210.290 55.551,210.651 55.401,210.718 55.292 C 210.882 55.027,213.115 55.045,213.542 55.315 C 213.886 55.532,214.912 54.808,214.912 54.347 C 214.912 54.231,215.219 53.680,215.595 53.123 C 215.970 52.567,216.278 52.058,216.278 51.993 C 216.278 51.928,216.585 51.428,216.961 50.882 C 217.336 50.336,217.646 49.806,217.649 49.703 C 217.652 49.600,217.854 49.260,218.099 48.947 C 218.920 47.898,218.262 47.505,214.456 46.772 C 212.574 46.409,212.351 46.406,210.700 46.725 M286.625 60.320 C 286.437 60.447,286.063 60.552,285.793 60.554 C 284.359 60.564,280.933 63.453,280.933 64.651 C 280.933 64.877,281.879 65.349,283.893 66.128 C 284.456 66.345,285.095 66.616,285.313 66.728 C 285.910 67.037,286.560 66.973,286.707 66.592 C 287.334 64.957,290.435 65.051,292.140 66.756 C 294.056 68.672,291.839 71.419,289.411 70.139 C 287.472 69.116,286.868 69.097,286.856 70.056 C 286.854 70.208,286.660 70.676,286.424 71.096 C 285.693 72.398,285.586 73.307,286.163 73.307 C 287.573 73.307,289.585 75.053,289.585 76.277 C 289.585 77.921,287.479 79.727,286.371 79.034 C 286.138 78.889,285.791 78.771,285.599 78.771 C 284.038 78.771,281.977 75.834,282.712 74.657 C 283.084 74.061,283.051 73.534,282.641 73.534 C 282.453 73.534,282.299 73.432,282.299 73.307 C 282.299 73.182,282.144 73.079,281.955 73.079 C 281.765 73.079,281.381 72.961,281.101 72.816 C 280.033 72.264,279.791 72.168,279.457 72.168 C 279.267 72.168,279.112 72.066,279.112 71.941 C 279.112 71.816,278.862 71.713,278.556 71.713 C 278.251 71.713,277.934 71.605,277.853 71.473 C 276.840 69.835,276.093 76.244,277.090 78.024 C 278.070 79.774,279.314 81.275,279.785 81.275 C 279.916 81.275,280.023 81.360,280.023 81.464 C 280.023 81.568,280.304 81.798,280.649 81.976 C 280.993 82.153,281.326 82.351,281.389 82.416 C 283.795 84.895,291.454 85.073,293.851 82.705 C 294.259 82.303,294.593 81.887,294.593 81.781 C 294.593 81.675,294.783 81.384,295.016 81.134 C 296.342 79.711,296.153 75.851,294.702 74.710 C 293.945 74.114,293.990 73.762,294.824 73.762 C 295.997 73.762,297.433 72.687,298.350 71.122 C 299.841 68.578,298.330 64.422,295.261 62.624 C 293.745 61.736,292.230 61.013,291.884 61.013 C 291.671 61.013,291.400 60.921,291.281 60.809 C 291.071 60.610,290.102 60.431,287.991 60.200 C 287.427 60.139,286.813 60.192,286.625 60.320 M132.043 67.993 C 122.160 69.524,118.957 81.924,126.819 88.219 C 127.615 88.856,129.279 89.698,129.743 89.698 C 129.956 89.698,130.228 89.786,130.347 89.892 C 130.689 90.198,134.378 90.683,135.244 90.536 C 138.107 90.050,137.865 90.137,141.191 88.405 C 141.735 88.121,142.369 87.481,143.426 86.145 C 144.082 85.316,145.248 82.630,145.248 81.947 C 145.248 81.524,145.065 81.503,141.377 81.503 L 137.507 81.503 137.507 82.078 C 137.507 84.274,133.764 85.508,131.912 83.922 C 129.932 82.228,129.827 76.480,131.740 74.566 C 133.380 72.926,136.424 73.455,137.263 75.526 L 137.562 76.266 141.462 76.248 C 143.607 76.239,145.233 76.179,145.077 76.116 C 144.920 76.052,144.792 75.649,144.792 75.220 C 144.792 74.790,144.702 74.261,144.591 74.044 C 144.481 73.826,144.250 73.342,144.079 72.968 C 142.433 69.372,137.174 67.198,132.043 67.993 M248.606 72.898 C 248.293 73.032,247.729 73.275,247.353 73.438 C 245.711 74.152,243.813 76.877,242.686 80.137 C 240.297 87.048,240.841 91.040,244.448 93.056 C 245.123 93.434,245.095 93.447,245.414 92.601 C 245.826 91.504,246.130 90.771,246.356 90.328 C 246.466 90.110,246.557 89.732,246.557 89.487 C 246.557 89.242,246.659 88.979,246.784 88.902 C 246.910 88.824,247.012 88.511,247.012 88.205 C 247.012 87.899,247.114 87.649,247.240 87.649 C 247.659 87.649,247.473 86.433,246.972 85.900 C 246.461 85.356,246.262 82.539,246.711 82.209 C 246.814 82.134,247.031 81.816,247.192 81.503 C 247.773 80.372,249.156 80.077,250.243 80.851 L 250.926 81.337 250.807 83.184 C 250.742 84.200,250.575 85.544,250.436 86.170 C 250.298 86.796,250.099 88.127,249.995 89.129 C 249.891 90.131,249.774 91.053,249.735 91.178 C 249.613 91.576,250.016 94.025,250.226 94.154 C 250.336 94.223,250.427 94.429,250.427 94.613 C 250.427 95.969,253.417 97.668,255.901 97.724 C 259.176 97.797,261.265 95.814,262.693 91.276 C 262.994 90.318,263.036 86.698,262.750 86.386 C 262.641 86.267,262.482 85.875,262.397 85.516 L 262.243 84.862 263.236 85.011 C 264.338 85.177,264.435 85.080,265.029 83.210 C 265.188 82.709,265.399 82.202,265.499 82.083 C 265.599 81.964,265.680 81.631,265.680 81.343 C 265.680 81.055,265.783 80.820,265.908 80.820 C 266.033 80.820,266.135 80.570,266.135 80.264 C 266.135 79.958,266.238 79.645,266.363 79.567 C 266.488 79.490,266.591 79.183,266.591 78.884 C 266.591 78.586,266.693 78.279,266.818 78.201 C 267.313 77.896,267.001 77.632,266.147 77.632 C 264.854 77.632,263.352 77.210,258.850 75.581 C 257.410 75.060,256.027 74.583,255.777 74.521 C 255.284 74.398,254.418 74.056,253.788 73.736 C 253.571 73.625,253.185 73.534,252.931 73.534 C 252.677 73.534,252.292 73.444,252.074 73.334 C 250.942 72.759,249.388 72.563,248.606 72.898 M175.544 79.476 C 174.365 80.090,173.274 80.592,173.121 80.592 C 172.812 80.592,172.501 81.204,172.752 81.317 C 173.982 81.869,175.803 87.649,174.747 87.649 C 174.622 87.649,160.981 94.323,160.562 94.589 C 160.513 94.620,161.352 96.374,163.409 100.544 C 164.194 102.137,164.222 102.164,164.803 101.899 C 165.129 101.750,165.831 101.430,166.363 101.187 C 166.895 100.945,167.331 100.668,167.331 100.572 C 167.331 100.477,167.453 100.398,167.603 100.398 C 167.753 100.398,170.442 99.131,173.579 97.582 C 185.458 91.716,186.809 91.064,187.083 91.064 C 187.238 91.064,187.365 90.962,187.365 90.837 C 187.365 90.711,187.570 90.609,187.820 90.609 C 188.071 90.609,188.275 90.507,188.275 90.381 C 188.275 90.256,188.431 90.154,188.620 90.154 C 189.000 90.154,189.902 89.696,190.125 89.389 C 190.378 89.043,187.355 83.242,187.070 83.527 C 186.612 83.985,183.162 83.841,182.245 83.325 C 180.709 82.463,178.031 79.431,178.031 78.555 C 178.031 78.203,177.892 78.254,175.544 79.476 M257.174 83.212 C 257.804 83.526,258.456 84.038,258.624 84.350 C 258.791 84.662,259.012 84.917,259.116 84.917 C 259.616 84.917,259.305 87.721,258.720 88.488 C 256.598 91.271,253.761 88.828,254.768 85.086 C 254.907 84.571,254.965 83.874,254.897 83.536 C 254.678 82.442,255.418 82.336,257.174 83.212 M252.020 111.960 C 252.020 112.058,251.739 112.306,251.394 112.510 C 251.050 112.714,249.846 113.565,248.719 114.402 C 247.592 115.238,246.517 115.985,246.330 116.061 C 246.142 116.137,245.761 116.427,245.482 116.706 C 245.203 116.984,244.665 117.395,244.286 117.619 C 243.907 117.843,243.597 118.107,243.597 118.205 C 243.597 118.303,243.496 118.384,243.372 118.384 C 243.161 118.384,242.564 118.816,241.880 119.465 C 241.716 119.622,241.523 119.750,241.453 119.750 C 241.383 119.750,241.145 119.897,240.925 120.076 C 240.382 120.518,236.705 123.221,236.258 123.506 C 236.062 123.631,235.275 124.220,234.510 124.815 C 233.745 125.410,233.018 125.896,232.894 125.896 C 232.771 125.896,232.669 125.977,232.669 126.075 C 232.669 126.173,232.388 126.420,232.043 126.624 C 231.699 126.828,231.110 127.260,230.734 127.584 C 230.359 127.908,229.973 128.173,229.878 128.173 C 229.452 128.173,228.344 129.502,228.478 129.852 C 228.556 130.055,228.690 130.222,228.774 130.222 C 228.859 130.222,229.108 130.526,229.327 130.897 C 229.546 131.268,229.854 131.703,230.010 131.864 C 230.166 132.025,230.542 132.516,230.845 132.954 C 231.147 133.392,231.456 133.802,231.530 133.865 C 231.645 133.961,233.612 136.688,235.636 139.556 C 235.945 139.994,236.254 140.404,236.323 140.467 C 236.392 140.529,236.697 140.939,237.003 141.377 C 237.965 142.760,238.212 143.049,239.727 144.578 C 240.541 145.400,241.540 146.219,241.946 146.398 C 242.353 146.578,242.686 146.802,242.686 146.897 C 242.686 146.991,242.885 147.069,243.128 147.069 C 243.371 147.069,243.627 147.160,243.696 147.272 C 243.765 147.384,244.207 147.530,244.677 147.596 C 245.147 147.661,245.824 147.789,246.181 147.878 C 246.835 148.043,249.217 147.614,249.619 147.260 C 249.738 147.155,250.019 147.069,250.245 147.069 C 250.470 147.069,250.655 146.989,250.655 146.890 C 250.655 146.792,250.945 146.540,251.300 146.331 C 253.918 144.784,256.076 139.832,254.722 138.479 C 253.985 137.741,255.434 137.271,256.221 137.992 C 256.684 138.416,259.450 138.212,260.464 137.678 C 263.126 136.278,264.360 134.352,264.390 131.551 C 264.410 129.717,264.320 129.298,263.605 127.892 C 263.494 127.674,263.404 127.341,263.404 127.152 C 263.404 126.962,263.301 126.807,263.176 126.807 C 263.051 126.807,262.948 126.694,262.948 126.555 C 262.948 126.416,262.257 125.329,261.411 124.138 C 260.566 122.947,259.772 121.810,259.647 121.612 C 259.522 121.413,259.138 120.939,258.794 120.557 C 258.451 120.176,258.169 119.735,258.168 119.579 C 258.168 119.422,258.087 119.294,257.989 119.294 C 257.891 119.294,257.643 119.013,257.439 118.668 C 257.235 118.324,256.804 117.735,256.480 117.359 C 256.156 116.983,255.891 116.586,255.891 116.475 C 255.891 116.365,255.707 116.109,255.482 115.906 C 255.256 115.704,254.826 115.179,254.525 114.741 C 254.224 114.303,253.921 113.893,253.852 113.830 C 253.783 113.768,253.431 113.281,253.070 112.749 C 252.466 111.858,252.020 111.523,252.020 111.960 M141.377 112.915 C 140.906 113.185,139.159 113.954,136.596 115.020 C 130.625 117.504,129.174 118.216,129.268 118.618 C 129.336 118.910,129.555 122.918,129.987 131.816 C 130.100 134.132,130.308 137.923,130.450 140.239 C 130.765 145.398,131.037 150.422,131.347 156.858 C 131.642 162.978,132.033 168.990,132.143 169.100 C 132.189 169.146,132.723 168.961,133.330 168.688 C 133.937 168.416,134.792 168.040,135.231 167.852 C 136.500 167.309,138.042 166.615,138.472 166.395 C 138.689 166.284,139.022 166.192,139.211 166.192 C 139.401 166.192,139.556 166.090,139.556 165.965 C 139.556 165.839,139.711 165.737,139.901 165.737 C 140.090 165.737,140.423 165.646,140.641 165.534 C 141.174 165.261,143.177 164.367,143.882 164.088 C 145.155 163.584,145.137 163.619,145.081 161.841 C 145.052 160.916,144.968 159.269,144.894 158.180 L 144.760 156.202 145.857 155.709 C 146.461 155.438,147.262 155.086,147.638 154.926 C 149.050 154.326,149.953 153.930,151.230 153.354 C 151.954 153.028,152.596 152.760,152.656 152.760 C 152.716 152.760,153.200 152.565,153.730 152.325 C 154.261 152.086,155.361 151.615,156.175 151.279 C 156.989 150.943,157.833 150.576,158.050 150.462 C 158.928 150.005,158.884 149.970,161.578 153.229 C 162.050 153.800,162.640 154.543,162.888 154.880 C 163.369 155.531,163.681 155.619,164.317 155.284 C 164.535 155.169,165.097 154.913,165.566 154.715 C 166.559 154.295,167.707 153.804,168.754 153.350 C 169.161 153.174,170.569 152.572,171.884 152.012 C 175.841 150.328,177.120 149.732,177.120 149.570 C 177.120 149.340,175.909 147.994,173.250 145.269 C 171.935 143.921,169.937 141.810,168.810 140.576 C 167.684 139.343,165.993 137.550,165.054 136.591 C 164.115 135.633,162.797 134.243,162.126 133.503 C 160.849 132.096,156.472 127.461,152.170 122.961 C 150.780 121.508,148.988 119.602,148.188 118.725 C 143.238 113.307,142.215 112.434,141.377 112.915 M252.476 123.419 C 252.476 123.559,252.787 124.046,253.167 124.500 C 253.940 125.426,254.001 125.505,254.675 126.466 C 256.537 129.117,256.542 130.547,254.695 131.469 C 253.260 132.184,252.066 131.471,250.313 128.852 C 249.937 128.291,249.467 127.651,249.268 127.429 C 248.297 126.351,248.217 125.866,248.926 125.351 C 249.289 125.088,250.105 124.488,250.740 124.018 C 251.911 123.153,252.476 122.957,252.476 123.419 M197.154 138.987 L 197.154 148.890 199.659 148.890 L 202.163 148.890 202.163 148.107 C 202.163 147.229,202.585 146.781,202.765 147.469 C 203.318 149.583,209.134 149.286,210.618 147.069 C 210.911 146.631,211.208 146.221,211.277 146.158 C 211.346 146.096,211.538 145.583,211.704 145.020 C 211.869 144.456,212.104 143.724,212.224 143.392 C 212.588 142.392,212.153 137.507,211.700 137.507 C 211.588 137.507,211.497 137.362,211.497 137.184 C 211.497 136.619,209.546 134.877,208.594 134.591 C 206.580 133.988,204.426 134.349,203.232 135.490 C 202.242 136.436,202.163 136.212,202.163 132.485 L 202.163 129.084 199.659 129.084 L 197.154 129.084 197.154 138.987 M244.678 130.161 C 245.085 130.630,245.418 131.120,245.418 131.251 C 245.418 131.381,245.623 131.635,245.874 131.816 C 246.124 131.996,246.329 132.222,246.329 132.319 C 246.329 132.473,246.574 132.810,247.353 133.728 C 249.955 136.790,246.071 140.846,243.244 138.019 C 242.471 137.247,240.874 135.228,240.296 134.293 C 240.171 134.090,239.887 133.670,239.665 133.358 C 239.171 132.664,239.292 132.307,240.244 131.649 C 240.648 131.370,241.542 130.735,242.231 130.237 C 243.779 129.120,243.775 129.120,244.678 130.161 M142.990 130.631 C 143.293 130.982,143.897 131.725,144.334 132.282 C 145.444 133.700,145.695 134.002,146.727 135.173 C 147.228 135.741,147.784 136.421,147.962 136.686 C 148.140 136.950,148.703 137.643,149.214 138.227 C 152.836 142.368,152.817 141.966,149.459 143.317 C 148.958 143.518,148.114 143.881,147.584 144.124 C 147.053 144.366,146.535 144.565,146.433 144.565 C 146.331 144.565,145.708 144.834,145.048 145.162 C 143.627 145.870,143.510 145.791,143.329 143.995 C 143.253 143.244,143.094 141.759,142.976 140.694 C 141.838 130.440,141.840 129.299,142.990 130.631 M204.895 137.947 C 204.895 138.064,205.173 138.192,205.513 138.232 C 207.256 138.435,207.892 143.181,206.377 144.678 C 205.219 145.823,203.131 145.364,202.445 143.814 C 201.754 142.254,202.293 138.888,203.308 138.417 C 203.492 138.332,203.847 138.149,204.098 138.012 C 204.673 137.696,204.895 137.678,204.895 137.947 M276.570 147.142 C 276.110 147.290,275.658 147.487,275.564 147.581 C 275.470 147.675,275.207 147.752,274.979 147.752 C 274.600 147.752,274.094 148.077,273.298 148.833 C 273.133 148.990,272.935 149.118,272.857 149.118 C 272.657 149.118,271.811 150.011,271.132 150.941 C 269.587 153.055,269.293 154.126,270.258 154.126 C 270.495 154.126,270.689 154.203,270.690 154.297 C 270.691 154.391,270.922 154.577,271.203 154.709 C 272.084 155.127,274.667 156.512,274.787 156.631 C 274.986 156.830,275.912 157.314,276.094 157.314 C 276.190 157.314,276.400 157.017,276.561 156.655 C 278.004 153.395,281.617 152.698,284.064 155.206 C 285.018 156.185,285.535 158.452,284.804 158.452 C 284.678 158.452,284.576 158.690,284.576 158.981 C 284.576 160.110,282.592 161.184,280.507 161.183 C 273.418 161.180,265.957 162.517,264.355 164.078 C 264.189 164.239,263.972 164.371,263.871 164.371 C 263.521 164.371,261.809 166.314,261.268 167.327 L 260.722 168.347 261.664 168.893 C 262.183 169.194,263.273 169.800,264.087 170.242 C 264.900 170.683,266.130 171.352,266.818 171.728 C 267.507 172.105,268.587 172.689,269.217 173.027 C 270.866 173.910,271.470 174.257,271.599 174.399 C 271.662 174.467,272.303 174.808,273.023 175.156 C 273.744 175.504,274.461 175.909,274.617 176.056 C 274.773 176.203,275.566 176.666,276.380 177.086 C 277.194 177.505,278.457 178.171,279.186 178.566 C 282.119 180.152,282.424 180.303,282.698 180.305 C 282.854 180.306,282.982 180.154,282.982 179.966 C 282.982 179.778,283.085 179.624,283.210 179.624 C 283.335 179.624,283.438 179.419,283.438 179.169 C 283.438 178.919,283.540 178.714,283.665 178.714 C 283.791 178.714,283.893 178.509,283.893 178.258 C 283.893 178.008,283.971 177.803,284.067 177.803 C 284.163 177.803,284.419 177.419,284.637 176.949 C 284.855 176.480,285.238 175.739,285.487 175.304 L 285.940 174.512 285.087 174.009 C 284.618 173.732,284.111 173.397,283.960 173.264 C 283.808 173.131,283.547 173.022,283.379 173.022 C 283.211 173.022,282.976 172.928,282.857 172.812 C 282.738 172.696,281.975 172.252,281.161 171.824 C 280.347 171.397,279.220 170.787,278.657 170.469 C 278.093 170.151,277.069 169.597,276.380 169.237 C 275.102 168.569,274.515 168.041,274.706 167.732 C 274.765 167.636,277.106 167.558,279.909 167.558 C 283.060 167.558,285.058 167.471,285.145 167.331 C 285.223 167.205,285.581 167.103,285.942 167.103 C 286.303 167.103,286.661 167.001,286.739 166.875 C 286.816 166.750,287.130 166.648,287.435 166.648 C 287.741 166.648,287.991 166.545,287.991 166.420 C 287.991 166.295,288.152 166.192,288.349 166.192 C 288.545 166.192,288.837 166.064,288.996 165.908 C 289.155 165.751,289.609 165.377,290.005 165.076 C 290.401 164.775,291.006 164.084,291.350 163.540 C 291.694 162.996,292.052 162.550,292.146 162.550 C 292.240 162.550,292.316 162.395,292.316 162.205 C 292.316 162.016,292.419 161.657,292.544 161.408 C 292.669 161.160,292.874 160.753,292.999 160.504 C 293.125 160.255,293.227 159.186,293.227 158.127 C 293.227 157.068,293.125 156.139,292.999 156.061 C 292.874 155.984,292.772 155.671,292.772 155.365 C 292.772 155.059,292.694 154.809,292.600 154.809 C 292.505 154.809,292.300 154.520,292.143 154.166 C 291.682 153.126,288.981 150.447,287.726 149.785 C 287.433 149.631,287.143 149.441,287.080 149.364 C 286.969 149.226,284.232 147.878,283.324 147.513 C 281.873 146.931,277.906 146.713,276.570 147.142 M179.624 180.797 C 176.944 181.003,174.297 181.485,171.087 182.353 C 169.585 182.759,168.072 183.143,167.726 183.205 C 167.380 183.268,167.041 183.410,166.973 183.521 C 166.904 183.632,166.553 183.722,166.192 183.722 C 165.832 183.722,165.473 183.825,165.396 183.950 C 165.318 184.075,165.055 184.178,164.810 184.178 C 164.565 184.178,164.187 184.270,163.970 184.383 C 163.752 184.496,163.113 184.719,162.550 184.878 C 161.986 185.037,161.428 185.252,161.309 185.355 C 161.190 185.459,160.812 185.544,160.469 185.544 C 160.126 185.544,159.781 185.646,159.704 185.771 C 159.627 185.896,159.319 185.999,159.021 185.999 C 158.723 185.999,158.415 186.101,158.338 186.227 C 158.261 186.352,157.896 186.454,157.528 186.454 C 157.160 186.454,156.858 186.557,156.858 186.682 C 156.858 186.807,156.557 186.910,156.189 186.910 C 155.820 186.910,155.456 187.012,155.378 187.137 C 155.301 187.262,154.994 187.365,154.696 187.365 C 154.397 187.365,154.090 187.467,154.013 187.592 C 153.935 187.718,153.620 187.820,153.313 187.820 C 153.006 187.820,152.576 187.913,152.359 188.027 C 152.141 188.140,151.246 188.403,150.370 188.611 C 149.493 188.819,148.418 189.091,147.980 189.217 C 146.011 189.779,140.513 190.883,138.076 191.206 C 134.486 191.682,134.015 191.725,130.604 191.901 C 123.818 192.250,113.547 191.225,110.006 189.845 C 109.719 189.733,109.187 189.641,108.825 189.641 C 108.462 189.641,108.102 189.539,108.025 189.414 C 107.948 189.289,107.604 189.186,107.260 189.186 C 106.917 189.186,106.539 189.102,106.420 188.999 C 106.301 188.897,105.435 188.571,104.496 188.275 C 103.557 187.980,102.692 187.654,102.573 187.551 C 102.454 187.449,102.170 187.365,101.943 187.365 C 101.716 187.365,101.353 187.274,101.135 187.164 C 100.918 187.053,100.433 186.836,100.057 186.682 C 99.681 186.527,99.196 186.311,98.979 186.200 C 98.006 185.705,97.958 185.838,97.795 189.471 C 97.502 196.029,96.847 207.537,96.623 210.070 L 96.477 211.716 91.437 211.777 L 86.397 211.838 86.336 216.562 L 86.274 221.286 199.995 221.286 L 313.717 221.286 313.717 216.505 L 313.717 211.725 308.848 211.725 L 303.979 211.725 303.824 210.985 C 303.739 210.578,303.571 208.247,303.451 205.805 C 303.331 203.364,303.132 199.624,303.008 197.496 C 302.885 195.367,302.725 191.910,302.653 189.812 C 302.516 185.801,302.480 185.690,301.477 186.200 C 301.259 186.311,300.774 186.527,300.398 186.682 C 300.023 186.836,299.538 187.053,299.320 187.164 C 299.103 187.274,298.725 187.365,298.480 187.365 C 298.235 187.365,297.972 187.467,297.894 187.592 C 297.817 187.718,297.509 187.820,297.211 187.820 C 296.913 187.820,296.606 187.923,296.528 188.048 C 296.451 188.173,296.158 188.275,295.877 188.275 C 295.597 188.275,295.270 188.360,295.151 188.464 C 294.956 188.633,294.255 188.865,292.203 189.439 C 281.777 192.353,269.268 192.773,258.395 190.574 C 257.832 190.460,256.807 190.257,256.118 190.123 C 254.757 189.858,254.153 189.705,251.565 188.969 C 250.626 188.702,249.471 188.423,248.998 188.349 C 248.526 188.275,248.084 188.125,248.017 188.017 C 247.950 187.909,247.600 187.820,247.240 187.820 C 246.879 187.820,246.520 187.718,246.443 187.592 C 246.365 187.467,246.001 187.365,245.633 187.365 C 245.264 187.365,244.963 187.262,244.963 187.137 C 244.963 187.012,244.662 186.910,244.293 186.910 C 243.925 186.910,243.561 186.807,243.483 186.682 C 243.406 186.557,243.098 186.454,242.800 186.454 C 242.502 186.454,242.195 186.352,242.117 186.227 C 242.040 186.101,241.681 185.999,241.320 185.999 C 240.960 185.999,240.601 185.896,240.524 185.771 C 240.446 185.646,240.139 185.544,239.841 185.544 C 239.542 185.544,239.235 185.441,239.158 185.316 C 239.080 185.191,238.773 185.088,238.475 185.088 C 238.176 185.088,237.869 184.986,237.792 184.861 C 237.714 184.735,237.407 184.633,237.109 184.633 C 236.810 184.633,236.503 184.530,236.426 184.405 C 236.348 184.280,235.990 184.178,235.629 184.178 C 235.268 184.178,234.909 184.075,234.832 183.950 C 234.755 183.825,234.447 183.722,234.149 183.722 C 233.851 183.722,233.551 183.632,233.482 183.521 C 233.414 183.410,233.075 183.268,232.729 183.204 C 232.383 183.141,230.871 182.759,229.368 182.354 C 223.121 180.674,218.225 180.309,213.887 181.201 C 212.860 181.412,209.729 182.725,209.448 183.062 C 209.385 183.137,209.084 183.331,208.778 183.492 C 208.472 183.653,207.857 184.122,207.412 184.533 C 206.967 184.944,206.394 185.468,206.139 185.697 C 205.579 186.200,203.524 188.937,203.347 189.414 C 203.277 189.602,203.159 189.806,203.085 189.869 C 202.829 190.083,200.812 194.365,200.478 195.404 C 200.329 195.865,199.886 195.716,199.886 195.206 C 199.886 195.025,199.784 194.878,199.659 194.878 C 199.533 194.878,199.431 194.671,199.431 194.419 C 199.431 194.167,199.339 193.783,199.227 193.565 C 199.115 193.348,198.682 192.453,198.264 191.577 C 197.847 190.700,197.447 189.932,197.376 189.869 C 197.304 189.806,196.968 189.274,196.628 188.685 C 195.994 187.587,192.385 183.722,191.994 183.722 C 191.874 183.722,191.578 183.540,191.335 183.318 C 189.435 181.579,184.181 180.448,179.624 180.797 M184.747 185.088 C 184.824 185.213,185.139 185.316,185.446 185.316 C 185.754 185.316,186.183 185.407,186.400 185.519 C 186.618 185.630,187.282 185.954,187.877 186.237 C 188.472 186.521,188.958 186.840,188.958 186.945 C 188.958 187.051,189.100 187.137,189.273 187.137 C 189.619 187.137,192.601 189.939,192.601 190.264 C 192.601 190.375,192.783 190.665,193.005 190.908 C 194.086 192.087,195.914 196.435,196.589 199.431 C 196.800 200.370,197.062 201.446,197.170 201.821 C 197.473 202.878,197.837 206.194,197.837 207.905 L 197.837 209.448 149.484 209.448 C 109.416 209.448,101.110 209.396,101.014 209.145 C 100.950 208.978,101.032 206.596,101.197 203.851 C 101.363 201.107,101.570 197.357,101.658 195.518 C 101.845 191.616,101.984 191.465,104.322 192.632 C 104.540 192.740,104.918 192.829,105.163 192.829 C 105.407 192.829,105.671 192.931,105.748 193.056 C 105.826 193.182,106.184 193.284,106.545 193.284 C 106.906 193.284,107.265 193.386,107.342 193.512 C 107.419 193.637,107.778 193.739,108.139 193.739 C 108.500 193.739,108.858 193.842,108.936 193.967 C 109.013 194.092,109.474 194.195,109.960 194.195 C 110.446 194.195,110.907 194.297,110.985 194.422 C 111.062 194.548,111.509 194.650,111.977 194.650 C 112.445 194.650,112.926 194.743,113.045 194.857 C 113.164 194.970,113.825 195.125,114.513 195.201 C 115.202 195.277,116.534 195.442,117.473 195.568 C 121.934 196.168,131.874 196.170,136.824 195.572 C 137.888 195.444,139.374 195.277,140.125 195.202 C 140.876 195.127,141.589 194.972,141.707 194.858 C 141.826 194.743,142.344 194.650,142.857 194.650 C 143.371 194.650,143.888 194.558,144.007 194.446 C 144.126 194.333,144.633 194.188,145.134 194.123 C 146.062 194.002,147.149 193.750,148.776 193.278 C 149.277 193.133,150.021 192.961,150.429 192.896 C 150.837 192.831,151.227 192.687,151.296 192.576 C 151.365 192.464,151.638 192.373,151.904 192.373 C 152.169 192.373,152.701 192.278,153.086 192.161 C 153.470 192.044,154.246 191.828,154.809 191.680 C 155.373 191.532,156.039 191.335,156.289 191.243 C 156.540 191.151,157.513 190.844,158.452 190.561 C 159.391 190.277,160.364 189.968,160.615 189.873 C 160.865 189.778,162.043 189.417,163.233 189.072 C 165.533 188.404,166.482 188.108,167.217 187.829 C 168.236 187.441,169.320 187.137,169.683 187.137 C 169.895 187.137,170.247 187.047,170.464 186.937 C 171.122 186.605,172.455 186.227,172.968 186.227 C 173.233 186.227,173.507 186.135,173.576 186.023 C 173.702 185.819,174.642 185.636,176.779 185.400 C 177.405 185.331,178.014 185.181,178.133 185.067 C 178.432 184.782,184.569 184.801,184.747 185.088 M222.322 185.067 C 222.441 185.181,223.051 185.331,223.677 185.400 C 225.814 185.636,226.753 185.819,226.879 186.023 C 226.948 186.135,227.300 186.227,227.661 186.227 C 228.022 186.227,228.380 186.329,228.458 186.454 C 228.535 186.579,228.894 186.682,229.254 186.682 C 229.615 186.682,229.974 186.784,230.051 186.910 C 230.129 187.035,230.538 187.137,230.962 187.137 C 231.385 187.137,231.795 187.240,231.873 187.365 C 231.950 187.490,232.243 187.592,232.523 187.592 C 232.804 187.592,233.131 187.677,233.250 187.781 C 233.369 187.884,233.876 188.088,234.377 188.234 C 235.541 188.573,238.984 189.618,239.727 189.858 C 240.040 189.959,241.064 190.271,242.003 190.552 C 242.943 190.832,243.916 191.138,244.166 191.231 C 244.670 191.418,245.685 191.715,247.240 192.130 C 247.803 192.281,248.579 192.500,248.963 192.616 C 249.348 192.733,249.880 192.829,250.145 192.829 C 250.410 192.829,250.691 192.931,250.768 193.056 C 250.846 193.182,251.256 193.284,251.679 193.284 C 252.102 193.284,252.505 193.375,252.574 193.487 C 252.695 193.682,253.392 193.841,255.322 194.113 C 255.822 194.184,256.330 194.333,256.448 194.446 C 256.567 194.558,257.085 194.650,257.598 194.650 C 258.112 194.650,258.629 194.744,258.748 194.858 C 258.867 194.973,259.579 195.124,260.330 195.194 C 261.081 195.264,262.567 195.436,263.631 195.578 C 266.245 195.924,280.708 196.104,281.018 195.794 C 281.147 195.666,281.994 195.561,282.901 195.561 C 283.807 195.561,284.612 195.458,284.690 195.333 C 284.767 195.208,285.316 195.105,285.910 195.105 C 286.503 195.105,287.087 195.013,287.205 194.901 C 287.324 194.789,287.857 194.635,288.389 194.559 C 290.779 194.221,291.189 194.134,291.307 193.943 C 291.376 193.831,291.779 193.739,292.203 193.739 C 292.626 193.739,293.036 193.637,293.113 193.512 C 293.191 193.386,293.454 193.284,293.699 193.284 C 293.944 193.284,294.322 193.192,294.539 193.079 C 294.757 192.966,295.396 192.749,295.959 192.597 C 296.522 192.446,297.216 192.212,297.500 192.079 C 298.296 191.705,298.449 192.055,298.680 194.778 C 299.030 198.917,299.455 208.680,299.303 209.076 C 299.150 209.475,202.763 209.675,202.556 209.277 C 202.466 209.104,202.719 205.360,202.975 203.073 C 203.052 202.385,203.208 201.724,203.322 201.605 C 203.436 201.486,203.530 201.127,203.531 200.808 C 203.534 200.271,203.675 199.694,204.524 196.756 C 205.612 192.992,208.946 188.181,211.336 186.928 C 211.675 186.750,211.952 186.520,211.952 186.416 C 211.952 186.312,212.157 186.227,212.408 186.227 C 212.658 186.227,212.863 186.124,212.863 185.999 C 212.863 185.874,213.113 185.771,213.419 185.771 C 213.724 185.771,214.038 185.669,214.115 185.544 C 214.192 185.418,214.551 185.316,214.912 185.316 C 215.273 185.316,215.631 185.213,215.709 185.088 C 215.886 184.801,222.023 184.782,222.322 185.067 " stroke="none" fill="#040404" fill-rule="evenodd"></path></g></svg>